<?xml version="1.0"?>
<svg  version="1.1"
  xmlns="http://www.w3.org/2000/svg">
  <g id="1">
  	<ellipse cx="1000" cy="380" rx="50" ry="12" style="fill:lightgrey"/>
  	<circle cx="1000" cy="300" r="80" style="fill:#FED700"/>
  	<circle cx="970" cy="280" r="35" style="fill:white"/>
  	<circle cx="1020" cy="280" r="35" style="fill:white"/>
  	<circle cx="1010" cy="280" r="7" style="fill:black"/>
  	<circle cx="960" cy="280" r="7" style="fill:black"/>
  	<ellipse cx="995" cy="340" rx="6" ry="13" style="fill:red"/>
  </g>
  <g id="2">
  	<ellipse cx="783" cy="380" rx="50" ry="12" style="fill:lightgrey"/>
  	<circle cx="780" cy="300" r="80" style="fill:orange"/>
  	<circle cx="810" cy="280" r="35" style="fill:white"/>
  	<circle cx="760" cy="280" r="35" style="fill:white"/>
  	<circle cx="768" cy="280" r="7" style="fill:black"/>
  	<circle cx="818" cy="280" r="7" style="fill:black"/>
  	<circle cx="785" cy="310" r="10" style="fill:black"/>
  	<ellipse cx="775" cy="340" rx="13" ry="6" style="fill:red"/>
	<polygon points="710,260 710,234 735,236" fill="black" stroke-width="3" stroke="orange"/>
    <polygon points="815,232 835,222 840,247" fill="black" stroke-width="3" stroke="orange"/>
    <ellipse cx="750" cy="140" rx="45" ry="18" fill="orange" transform="rotate(15)"/>
    <polygon points="662,335 645,317 670,311" fill="white"/>
  </g>
</svg>